<svg width="1032" height="258" viewBox="0 0 1032 258" fill="none" xmlns="http://www.w3.org/2000/svg">
<path d="M916.767 101.772C925.948 92.693 934.313 87.4691 947.843 87.075C956.842 87.0599 966.497 90.8618 972.816 97.1788C986.628 110.979 984.154 132.807 984.154 150.888L984.139 191.898C972.519 191.817 960.899 191.831 949.279 191.938L949.334 152.633C949.339 143.854 949.682 135.028 948.488 126.418C947.636 120.247 942.652 116.277 936.596 116.577C920.995 117.349 923.454 140.688 923.464 150.699L923.524 185.06V191.93C912.645 191.583 899.992 191.842 889.062 191.933L889.127 150.175C889.133 142.239 889.611 132.751 888.397 125.249C886.815 115.534 873.698 114.3 868.094 120.822C861.922 128.012 863.539 144.554 863.564 153.666L863.64 191.883C851.823 191.793 840.002 191.819 828.185 191.964L828.165 126.761C828.16 115.266 827.827 101.545 828.351 90.2521L853.048 90.2536C854.932 93.4847 856.54 97.8198 857.961 101.358C864.824 93.1314 873.411 88.7943 883.983 87.3335C897.644 85.788 908.175 91.6721 916.767 101.772Z" fill="white"/>
<path d="M318.757 87.3339C332.183 85.0452 345.447 90.5005 356.272 97.9165C357.375 95.7411 358.581 92.5584 359.538 90.242L386.077 90.1639C386.506 123.865 386.042 158.16 386.192 191.943C377.474 191.679 367.883 191.872 359.1 191.872L355.645 184.865C353.399 186.548 350.975 188.136 348.645 189.711C330.001 197.647 309.808 197.417 292.814 185.116C281.146 176.67 274.343 163.67 272.528 149.475C268.397 117.169 286.184 92.0651 318.757 87.3339ZM333.829 163.728C346.296 161.526 354.617 149.636 352.418 137.17C350.219 124.703 338.332 116.378 325.865 118.574C313.393 120.771 305.064 132.663 307.265 145.135C309.464 157.606 321.359 165.931 333.829 163.728Z" fill="white"/>
<path d="M542.767 53.7703L543.09 53.9996C543.483 57.4443 543.226 65.1132 543.221 69.0004L543.266 97.1274C558.923 84.4914 581.745 83.0467 596.897 97.588C610.986 111.113 608.714 133.529 608.683 151.573L608.714 191.916C597.824 191.56 584.773 191.823 573.828 191.936C573.682 179.009 573.944 165.952 573.848 153.011C573.788 144.624 574.105 136.92 573.203 128.535C572.266 124.743 571.027 122.761 568.794 119.727C552.8 111.334 542.778 124.388 543.186 139.562C543.322 144.515 543.196 149.854 543.206 154.846L543.246 191.924C532.417 191.534 519.341 191.864 508.346 191.866C508.981 146.365 508.406 99.4358 508.391 53.8277C519.714 53.6579 531.409 53.7869 542.767 53.7703Z" fill="white"/>
<path d="M673.168 87.3637C684.033 85.3642 700.934 89.3859 710.246 95.3567C725.101 104.88 730.236 116.051 734.151 132.467C723.756 132.037 710.372 132.407 699.749 132.413C697.517 128.327 694.393 122.903 690.044 120.994C669.903 112.148 654.166 129.304 660.047 149.267C661.417 153.914 665.564 159.671 670.074 161.508C684.466 167.371 693.496 161.543 699.956 148.774L725.877 148.769L734.579 148.83C732.76 158.125 729.248 167.39 723.408 174.915C714.932 185.643 702.612 192.65 689.062 194.455C610.986 204.272 598.963 96.5353 673.168 87.3637Z" fill="white"/>
<path d="M442.715 86.8815C452.84 85.524 468.764 89.2312 476.902 95.5764C486.247 102.861 488.93 110.187 490.561 121.342C480.221 121.02 468.016 121.321 457.535 121.323C456.146 114.727 453.366 112.025 446.688 111.723C442.602 111.538 436.683 115.915 437.491 119.744C439.462 129.08 459.654 127.596 466.902 130.571C472.938 132.156 478.453 134.327 483.259 138.465C494.848 148.531 494.36 170.158 484.235 181.123C474.825 191.314 463.573 194.128 450.258 194.969C423.783 195.695 404.712 186.445 401.947 158.298L435.385 158.236C437.177 165.45 439.887 169.178 447.719 169.437C452.007 169.579 458.33 165.444 457.536 161.008C455.905 151.897 438.132 153.383 431.344 150.823C422.888 148.157 415.833 146.603 409.803 139.574C404.676 133.568 402.799 124.188 403.635 116.567C405.824 96.6286 424.99 88.3287 442.715 86.8815Z" fill="white"/>
<path d="M178.211 50.0354C183.138 49.3864 201.623 49.8052 207.523 49.8311L207.525 77.1693C202.972 77.136 198.278 77.0146 193.735 76.9707C183.28 76.8689 183.72 83.7286 183.809 91.7059L207.622 91.5976L207.626 119.507C200.183 119.392 192.449 119.506 184.981 119.512L184.987 190.603L184.654 191.629C181.987 192.126 153.942 191.899 149.642 191.919L149.633 119.476C144.124 119.413 138.614 119.458 133.106 119.61L132.98 91.6933L150.128 91.6893C149.729 68.9435 152.146 54.0072 178.211 50.0354Z" fill="white"/>
<path d="M113.403 53.924C114.5 53.8575 115.647 53.8056 116.681 53.9189C117.807 54.0429 119.64 55.6705 120.098 56.4793C125.26 65.6035 101.603 77.79 96.8846 88.0042C88.617 105.904 98.2794 125.121 95.3018 144.004C94.7188 147.703 91.8697 153.419 89.2801 156.121C82.4512 163.245 72.5963 170.82 64.81 177.022C58.1135 182.356 48.458 190.912 41.7693 195.442L34.1429 195.572C32.2044 195.478 29.071 193.652 28.2291 191.91C24.9881 184.59 31.4347 178.146 34.2865 171.843C40.5057 157.36 53.9367 141.022 57.6046 126.073C59.6081 117.906 53.6056 99.0649 56.4224 89.7951C59.2745 80.4073 70.2345 77.0916 78.0244 72.765C89.8319 66.2072 101.79 60.5196 113.403 53.924Z" fill="#FEA631"/>
<path d="M114.081 60.551C113.834 62.0163 98.7389 76.3615 96.3045 79.132C86.1256 90.7158 87.1415 98.669 88.0102 112.789C88.2471 124.719 93.8157 143.99 84.0712 153.272C72.7882 164.02 59.2961 172.986 47.6398 183.453C44.313 186.441 40.0054 190.368 35.5339 190.656L33.669 188.761C32.6079 184.974 39.3969 174.543 41.5773 170.611C46.9775 161.016 52.2923 151.374 57.5214 141.684C59.4443 138.122 62.0878 134.259 62.9792 130.339C65.8918 117.535 58.5755 98.6705 63.986 87.3951C69.2584 83.8838 77.3531 79.8687 83.1374 76.8201L114.081 60.551Z" fill="#FEA631"/>
<path d="M220.778 53.7165C231.693 54.0818 244.516 53.7729 255.571 53.7583L255.623 191.9C244.463 191.606 231.976 191.842 220.775 191.935L220.778 53.7165Z" fill="white"/>
<path d="M804.058 89.9099L815.3 89.7809L815.31 121.943C811.843 121.884 808.377 121.848 804.91 121.833C794.59 121.826 786.426 122.87 784.819 134.992C783.851 142.293 784.204 149.569 784.209 156.921L784.32 191.953C773.647 191.581 761.03 191.873 750.206 191.889C749.989 191.88 749.384 191.643 749.142 191.556C748.639 189.72 748.911 169.205 748.906 165.483L748.885 90.2627L772.413 90.24C774.771 93.7285 776.439 97.7018 778.026 101.576L778.172 101.403C785.701 92.6043 793.043 90.751 804.058 89.9099Z" fill="white"/>
</svg>
